<?xml version="1.0" encoding="UTF-8"?>
<svg width="166px" height="77px" viewBox="0 0 166 77" version="1.1" xmlns="http://www.w3.org/2000/svg" xmlns:xlink="http://www.w3.org/1999/xlink">
    <!-- Generator: Sketch 54.1 (76490) - https://sketchapp.com -->
    <title>logo</title>
    <desc>Created with Sketch.</desc>
    <defs>
        <linearGradient x1="90.7599382%" y1="41.7036021%" x2="3.97600084%" y2="59.657901%" id="linearGradient-1">
            <stop stop-color="#FF807A" offset="0%"></stop>
            <stop stop-color="#FF8F6E" offset="51.1459662%"></stop>
            <stop stop-color="#FFB25E" offset="100%"></stop>
        </linearGradient>
    </defs>
    <g id="Desktop-App" stroke="none" stroke-width="1" fill="none" fill-rule="evenodd">
        <g id="Splash" transform="translate(-984.000000, -171.000000)" fill="url(#linearGradient-1)">
            <g id="Group" transform="translate(852.000000, 171.000000)">
                <g id="logo" transform="translate(132.000000, 0.000000)">
                    <path d="M141.225983,40.833836 C138.26257,37.5885123 138.767144,30.8889867 142.880288,26.4520754 C146.51113,22.5352571 151.146246,23.9280127 151.146246,23.9280127 C149.463407,33.0408535 151.352252,38.7352401 151.352252,38.7352401 C149.403554,41.8172462 144.028628,43.9046271 141.225983,40.833836 M105.231447,47.6448101 C100.365966,54.9828865 95.1803424,52.0810204 94.0876797,47.5200439 C92.9936251,42.9583665 94.272806,37.3529985 98.2237907,34.2471607 C101.938148,31.3270703 105.683127,34.0803384 105.683127,34.0803384 C104.045525,43.0214505 105.231447,47.6448101 105.231447,47.6448101 M75.9794057,39.3436506 C78.1737786,35.8866449 82.8610927,34.8296367 81.959124,40.2142105 C81.1420628,45.0899063 73.7328355,47.274717 73.7328355,47.274717 C73.7328355,47.274717 73.7857287,42.8006563 75.9794057,39.3436506 M23.0298074,70.0361416 C9.09313846,69.7501606 4.5060431,54.151579 12.5701721,45.2630369 C23.2239812,33.5202923 40.0941362,44.3602341 44.7960655,47.1092967 C40.9814896,62.2193275 33.6467304,70.2541321 23.0298074,70.0361416 M162.645651,30.917024 C162.645651,30.917024 164.623579,31.7244998 162.884367,36.2237941 C160.818747,41.5656109 153.85424,40.5296307 154.96639,31.7784717 C156.331174,21.0401653 159.909819,10.426625 160.838234,6.09555485 C161.765953,1.76448465 153.772117,0.5 153.772117,0.5 C153.772117,0.5 154.962214,1.59205492 154.423539,4.86892063 C153.883471,8.1450854 151.79906,17.4632999 151.79906,17.4632999 C151.79906,17.4632999 143.238013,15.5854981 138.188798,24.7873576 C133.328885,33.6443576 136.899178,39.3772955 136.899178,39.3772955 C136.899178,39.3772955 132.218823,49.3950419 130.671001,42.4130399 C129.278378,36.1284671 136.020176,24.1964703 133.990746,21.3976415 C131.690587,18.2224112 128.149525,18.8343265 128.149525,18.8343265 C128.149525,18.8343265 129.090468,21.0738101 127.320632,24.2406292 L120.244772,25.0985722 C120.244772,25.0985722 121.33813,23.7689007 120.591361,23.4436674 C119.706792,23.0595557 116.185217,23.3139946 114.245566,23.5417981 C112.436061,23.7541811 114.999991,28.416793 117.999593,30.6759028 C117.999593,30.6759028 118.087285,42.3429465 115.402954,48.133361 C112.914884,53.4997105 110.079529,51.0625635 109.913194,46.1062603 C109.746162,41.1499571 114.473842,31.1630518 112.349762,29.0476335 C110.224985,26.9315142 106.73612,25.8282443 106.73612,25.8282443 C106.73612,25.8282443 107.206592,26.9483366 107.094541,27.579878 C107.094541,27.579878 102.851948,24.5644606 96.655785,29.1352502 C90.4589261,33.7060398 89.5305108,42.1754234 90.8869436,48.2230805 C90.8869436,48.2230805 87.0264341,55.3529796 80.6012992,56.4415298 C74.8408094,57.4172297 73.8803798,50.1653682 73.8803798,50.1653682 C73.8803798,50.1653682 82.7511304,47.8403707 85.9532584,40.441313 C89.1546905,33.0450591 84.2286609,29.571231 78.6052759,31.2934255 C72.866361,33.0513676 69.2452629,41.2880411 69.6878957,48.4228467 C67.0488022,48.9730797 64.7423791,49.2331262 62.6809353,49.2737804 C63.3205257,45.9906062 64.1807366,42.1088346 65.2838387,37.9768296 C68.0663008,27.5560462 69.0664003,25.5695997 66.4711525,24.0878256 C63.8759046,22.6060515 60.7294537,22.324977 60.7294537,22.324977 C60.7294537,22.324977 61.6523013,23.2389947 61.2340272,24.8224043 C60.9013566,26.0798796 58.3450827,40.2878085 57.3623823,48.8160706 C54.9898428,48.324015 52.9875558,47.4807916 51.1446445,46.4511198 C54.62307,32.686181 58.1202865,13.5079302 57.979006,11.1829327 C57.8091909,8.37849637 51.3659609,7.60396447 51.3659609,7.60396447 C51.7884107,8.48994485 49.3574102,22.2212388 46.0564554,41.1632749 C45.9534528,41.7534612 45.8462744,42.3359372 45.7342243,42.9086001 C43.1890858,41.1429478 29.1097444,31.5702943 17.6103397,34.4399175 C6.1109349,37.3102416 -1.80495384,47.4036889 0.356012802,58.8303123 C2.29775094,69.100395 10.1621384,77.247349 22.6477234,76.4454807 C35.2954679,75.6323974 45.0215577,66.8581076 49.0219558,54.1004108 C49.4304864,52.7987766 49.8501524,51.3394324 50.2746901,49.7763499 C52.3938989,50.8859282 54.718417,51.5391985 57.0617261,51.8854598 C56.9997853,52.7265805 56.968467,53.4436358 56.9802983,53.9882614 C57.0951323,59.4289098 56.7916922,60.1130213 58.3290756,60.8609177 C59.8664589,61.6081131 61.562522,61.7714307 61.562522,61.7714307 C61.562522,61.7714307 61.2208039,60.455077 61.237507,58.8478357 C61.2458586,58.0796122 61.5360753,55.655783 62.1394757,52.1987773 C65.1279429,52.1476091 67.9138848,51.7256469 70.0713716,51.2391988 C70.7443683,54.0611585 72.7111611,58.9221347 78.3192349,59.4702649 C85.808498,60.2027408 91.756898,50.1127982 91.756898,50.1127982 C91.756898,50.1127982 93.8879382,54.8749427 98.4555466,54.5062515 C103.746261,54.0786818 105.960121,49.2380327 105.960121,49.2380327 C105.960121,49.2380327 108.966683,55.6747082 113.550299,53.2641967 C119.428406,50.1730785 120.601801,30.9885193 120.601801,30.9885193 C120.601801,30.9885193 122.320831,31.1195939 126.375514,29.6700627 C126.375514,29.6700627 123.959825,42.0997225 128.232345,46.448316 C132.504864,50.7969096 136.420355,45.1165417 137.95565,41.3896765 C137.95565,41.3896765 143.475337,48.8882667 152.298762,40.6081353 C154.343503,45.0941119 164.669513,44.8312617 165.861003,37.18898 C166.803337,31.1511359 162.645651,30.917024 162.645651,30.917024"></path>
                </g>
            </g>
        </g>
    </g>
</svg>